HIERARCHY
ROOT Hips
{
	OFFSET -50.672638 -52.785297 87.293335
	CHANNELS 6 Xposition Yposition Zposition Zrotation Yrotation Xrotation
	JOINT Spine
	{
		OFFSET 0.000000 2.080109 8.814247
		CHANNELS 6 Xposition Yposition Zposition Zrotation Yrotation Xrotation
		JOINT Spine1
		{
			OFFSET 0.000000 0.000000 8.844139
			CHANNELS 6 Xposition Yposition Zposition Zrotation Yrotation Xrotation
			JOINT Spine2
			{
				OFFSET 0.000000 0.000000 11.682266
				CHANNELS 6 Xposition Yposition Zposition Zrotation Yrotation Xrotation
				JOINT Spine3
				{
					OFFSET 0.000000 0.000004 11.746689
					CHANNELS 6 Xposition Yposition Zposition Zrotation Yrotation Xrotation
					JOINT Neck
					{
						OFFSET 0.000000 0.000000 17.658264
						CHANNELS 6 Xposition Yposition Zposition Zrotation Yrotation Xrotation
						JOINT Neck1
						{
							OFFSET 0.000000 0.000000 5.101517
							CHANNELS 6 Xposition Yposition Zposition Zrotation Yrotation Xrotation
							JOINT Head
							{
								OFFSET 0.000000 0.000000 5.101517
								CHANNELS 6 Xposition Yposition Zposition Zrotation Yrotation Xrotation
								JOINT HeadEnd
								{
									OFFSET 0.000000 0.000000 11.655090
									CHANNELS 6 Xposition Yposition Zposition Zrotation Yrotation Xrotation
									End Site
									{
										OFFSET 0.000000 0.000000 0.100006
									}
								}
							}
						}
					}
					JOINT RightShoulder
					{
						OFFSET -2.625389 0.000000 11.175217
						CHANNELS 6 Xposition Yposition Zposition Zrotation Yrotation Xrotation
						JOINT RightArm
						{
							OFFSET 0.000000 0.000000 10.434708
							CHANNELS 6 Xposition Yposition Zposition Zrotation Yrotation Xrotation
							JOINT RightForeArm
							{
								OFFSET 0.000000 0.000004 29.628418
								CHANNELS 6 Xposition Yposition Zposition Zrotation Yrotation Xrotation
								JOINT RightHand
								{
									OFFSET 0.000000 0.000000 22.857605
									CHANNELS 6 Xposition Yposition Zposition Zrotation Yrotation Xrotation
									JOINT RightHandThumb1
									{
										OFFSET -2.867325 -2.944290 3.959564
										CHANNELS 6 Xposition Yposition Zposition Zrotation Yrotation Xrotation
										JOINT RightHandThumb2
										{
											OFFSET 0.000000 0.000000 3.350403
											CHANNELS 6 Xposition Yposition Zposition Zrotation Yrotation Xrotation
											JOINT RightHandThumb3
											{
												OFFSET 0.000000 0.000000 3.756516
												CHANNELS 6 Xposition Yposition Zposition Zrotation Yrotation Xrotation
												JOINT RightHandThumb4
												{
													OFFSET 0.000000 0.000000 3.147339
													CHANNELS 6 Xposition Yposition Zposition Zrotation Yrotation Xrotation
													End Site
													{
														OFFSET 0.000000 0.000000 0.100006
													}
												}
											}
										}
									}
									JOINT RightHandIndex1
									{
										OFFSET -0.086754 -2.345280 10.030899
										CHANNELS 6 Xposition Yposition Zposition Zrotation Yrotation Xrotation
										JOINT RightHandIndex2
										{
											OFFSET 0.000000 0.000000 4.061096
											CHANNELS 6 Xposition Yposition Zposition Zrotation Yrotation Xrotation
											JOINT RightHandIndex3
											{
												OFFSET 0.000000 0.000000 3.248871
												CHANNELS 6 Xposition Yposition Zposition Zrotation Yrotation Xrotation
												JOINT RightHandIndex4
												{
													OFFSET 0.000000 0.000000 2.639709
													CHANNELS 6 Xposition Yposition Zposition Zrotation Yrotation Xrotation
													End Site
													{
														OFFSET 0.000000 0.000000 0.100006
													}
												}
											}
										}
									}
									JOINT RightHandMiddle1
									{
										OFFSET 0.104103 -0.006767 9.502945
										CHANNELS 6 Xposition Yposition Zposition Zrotation Yrotation Xrotation
										JOINT RightHandMiddle2
										{
											OFFSET 0.000000 0.000000 4.568726
											CHANNELS 6 Xposition Yposition Zposition Zrotation Yrotation Xrotation
											JOINT RightHandMiddle3
											{
												OFFSET 0.000000 0.000000 3.654984
												CHANNELS 6 Xposition Yposition Zposition Zrotation Yrotation Xrotation
												JOINT RightHandMiddle4
												{
													OFFSET 0.000000 0.000000 2.741241
													CHANNELS 6 Xposition Yposition Zposition Zrotation Yrotation Xrotation
													End Site
													{
														OFFSET 0.000000 0.000000 0.100006
													}
												}
											}
										}
									}
									JOINT RightHandRing1
									{
										OFFSET 0.086754 2.267441 8.921707
										CHANNELS 6 Xposition Yposition Zposition Zrotation Yrotation Xrotation
										JOINT RightHandRing2
										{
											OFFSET 0.000000 0.000000 4.061096
											CHANNELS 6 Xposition Yposition Zposition Zrotation Yrotation Xrotation
											JOINT RightHandRing3
											{
												OFFSET 0.000000 0.000000 3.654984
												CHANNELS 6 Xposition Yposition Zposition Zrotation Yrotation Xrotation
												JOINT RightHandRing4
												{
													OFFSET 0.000000 0.000000 2.741241
													CHANNELS 6 Xposition Yposition Zposition Zrotation Yrotation Xrotation
													End Site
													{
														OFFSET 0.000000 0.000000 0.100006
													}
												}
											}
										}
									}
									JOINT RightHandPinky1
									{
										OFFSET -0.173504 4.467197 7.976990
										CHANNELS 6 Xposition Yposition Zposition Zrotation Yrotation Xrotation
										JOINT RightHandPinky2
										{
											OFFSET 0.000000 0.000000 3.350403
											CHANNELS 6 Xposition Yposition Zposition Zrotation Yrotation Xrotation
											JOINT RightHandPinky3
											{
												OFFSET 0.000000 0.000000 2.842758
												CHANNELS 6 Xposition Yposition Zposition Zrotation Yrotation Xrotation
												JOINT RightHandPinky4
												{
													OFFSET 0.000000 0.000000 2.639709
													CHANNELS 6 Xposition Yposition Zposition Zrotation Yrotation Xrotation
													End Site
													{
														OFFSET 0.000000 0.000000 0.100006
													}
												}
											}
										}
									}
									JOINT RightForeArmEnd
									{
										OFFSET 0.000000 0.000000 0.000000
										CHANNELS 6 Xposition Yposition Zposition Zrotation Yrotation Xrotation
										End Site
										{
											OFFSET 0.000000 0.000000 0.100006
										}
									}
								}
								JOINT RightArmEnd
								{
									OFFSET 0.000000 0.000000 0.000000
									CHANNELS 6 Xposition Yposition Zposition Zrotation Yrotation Xrotation
									End Site
									{
										OFFSET 0.000000 0.000000 0.100006
									}
								}
							}
						}
					}
					JOINT LeftShoulder
					{
						OFFSET 2.625389 0.000000 11.175217
						CHANNELS 6 Xposition Yposition Zposition Zrotation Yrotation Xrotation
						JOINT LeftArm
						{
							OFFSET 0.000000 0.000000 10.813629
							CHANNELS 6 Xposition Yposition Zposition Zrotation Yrotation Xrotation
							JOINT LeftForeArm
							{
								OFFSET 0.000000 0.000004 28.724777
								CHANNELS 6 Xposition Yposition Zposition Zrotation Yrotation Xrotation
								JOINT LeftHand
								{
									OFFSET 0.644382 0.328873 25.716171
									CHANNELS 6 Xposition Yposition Zposition Zrotation Yrotation Xrotation
									JOINT LeftHandThumb1
									{
										OFFSET 2.867321 -2.944290 3.959564
										CHANNELS 6 Xposition Yposition Zposition Zrotation Yrotation Xrotation
										JOINT LeftHandThumb2
										{
											OFFSET 0.000000 0.000000 3.350403
											CHANNELS 6 Xposition Yposition Zposition Zrotation Yrotation Xrotation
											JOINT LeftHandThumb3
											{
												OFFSET 0.000000 0.000000 3.756516
												CHANNELS 6 Xposition Yposition Zposition Zrotation Yrotation Xrotation
												JOINT LeftHandThumb4
												{
													OFFSET 0.000000 0.000000 3.100006
													CHANNELS 6 Xposition Yposition Zposition Zrotation Yrotation Xrotation
													End Site
													{
														OFFSET 0.000000 0.000000 0.100006
													}
												}
											}
										}
									}
									JOINT LeftHandIndex1
									{
										OFFSET 0.086754 -2.345280 10.030899
										CHANNELS 6 Xposition Yposition Zposition Zrotation Yrotation Xrotation
										JOINT LeftHandIndex2
										{
											OFFSET 0.000000 0.000000 4.061096
											CHANNELS 6 Xposition Yposition Zposition Zrotation Yrotation Xrotation
											JOINT LeftHandIndex3
											{
												OFFSET 0.000000 0.000000 3.248871
												CHANNELS 6 Xposition Yposition Zposition Zrotation Yrotation Xrotation
												JOINT LeftHandIndex4
												{
													OFFSET 0.000000 0.000000 2.639709
													CHANNELS 6 Xposition Yposition Zposition Zrotation Yrotation Xrotation
													End Site
													{
														OFFSET 0.000000 0.000000 0.100006
													}
												}
											}
										}
									}
									JOINT LeftHandMiddle1
									{
										OFFSET -0.104103 -0.006767 9.502945
										CHANNELS 6 Xposition Yposition Zposition Zrotation Yrotation Xrotation
										JOINT LeftHandMiddle2
										{
											OFFSET 0.000000 0.000000 4.568726
											CHANNELS 6 Xposition Yposition Zposition Zrotation Yrotation Xrotation
											JOINT LeftHandMiddle3
											{
												OFFSET 0.000000 0.000000 3.654984
												CHANNELS 6 Xposition Yposition Zposition Zrotation Yrotation Xrotation
												JOINT LeftHandMiddle4
												{
													OFFSET 0.000000 0.000000 2.741241
													CHANNELS 6 Xposition Yposition Zposition Zrotation Yrotation Xrotation
													End Site
													{
														OFFSET 0.000000 0.000000 0.100006
													}
												}
											}
										}
									}
									JOINT LeftHandRing1
									{
										OFFSET -0.086754 2.267441 8.921707
										CHANNELS 6 Xposition Yposition Zposition Zrotation Yrotation Xrotation
										JOINT LeftHandRing2
										{
											OFFSET 0.000000 0.000000 4.061096
											CHANNELS 6 Xposition Yposition Zposition Zrotation Yrotation Xrotation
											JOINT LeftHandRing3
											{
												OFFSET 0.000000 0.000000 3.654984
												CHANNELS 6 Xposition Yposition Zposition Zrotation Yrotation Xrotation
												JOINT LeftHandRing4
												{
													OFFSET 0.000000 0.000000 2.741241
													CHANNELS 6 Xposition Yposition Zposition Zrotation Yrotation Xrotation
													End Site
													{
														OFFSET 0.000000 0.000000 0.100006
													}
												}
											}
										}
									}
									JOINT LeftHandPinky1
									{
										OFFSET 0.173504 4.467197 7.976990
										CHANNELS 6 Xposition Yposition Zposition Zrotation Yrotation Xrotation
										JOINT LeftHandPinky2
										{
											OFFSET 0.000000 0.000000 3.350403
											CHANNELS 6 Xposition Yposition Zposition Zrotation Yrotation Xrotation
											JOINT LeftHandPinky3
											{
												OFFSET 0.000000 0.000000 2.842758
												CHANNELS 6 Xposition Yposition Zposition Zrotation Yrotation Xrotation
												JOINT LeftHandPinky4
												{
													OFFSET 0.000000 0.000000 2.639709
													CHANNELS 6 Xposition Yposition Zposition Zrotation Yrotation Xrotation
													End Site
													{
														OFFSET 0.000000 0.000000 0.100006
													}
												}
											}
										}
									}
									JOINT LeftForeArmEnd
									{
										OFFSET 0.000000 0.000000 0.000000
										CHANNELS 6 Xposition Yposition Zposition Zrotation Yrotation Xrotation
										End Site
										{
											OFFSET 0.000000 0.000000 0.100006
										}
									}
								}
								JOINT LeftArmEnd
								{
									OFFSET 0.000000 0.000000 0.000000
									CHANNELS 6 Xposition Yposition Zposition Zrotation Yrotation Xrotation
									End Site
									{
										OFFSET 0.000000 0.000000 0.100006
									}
								}
							}
						}
					}
				}
			}
		}
	}
	JOINT RightUpLeg
	{
		OFFSET -11.289944 0.000000 0.000000
		CHANNELS 6 Xposition Yposition Zposition Zrotation Yrotation Xrotation
		JOINT RightLeg
		{
			OFFSET 0.000000 -0.000004 -38.200329
			CHANNELS 6 Xposition Yposition Zposition Zrotation Yrotation Xrotation
			JOINT RightFoot
			{
				OFFSET 0.000000 -0.000004 -39.900856
				CHANNELS 6 Xposition Yposition Zposition Zrotation Yrotation Xrotation
				JOINT RightToeBase
				{
					OFFSET 0.000000 -15.261639 0.000001
					CHANNELS 6 Xposition Yposition Zposition Zrotation Yrotation Xrotation
					JOINT RightToeBaseEnd
					{
						OFFSET 0.000000 -7.370712 0.000001
						CHANNELS 6 Xposition Yposition Zposition Zrotation Yrotation Xrotation
						End Site
						{
							OFFSET 0.000000 0.000000 0.100000
						}
					}
				}
				JOINT RightLegEnd
				{
					OFFSET 0.000000 0.000000 0.000000
					CHANNELS 6 Xposition Yposition Zposition Zrotation Yrotation Xrotation
					End Site
					{
						OFFSET 0.000000 0.000000 0.100000
					}
				}
			}
			JOINT RightUpLegEnd
			{
				OFFSET 0.000000 0.000000 0.000000
				CHANNELS 6 Xposition Yposition Zposition Zrotation Yrotation Xrotation
				End Site
				{
					OFFSET 0.000000 0.000000 0.099998
				}
			}
		}
	}
	JOINT LeftUpLeg
	{
		OFFSET 11.315662 0.000000 0.000000
		CHANNELS 6 Xposition Yposition Zposition Zrotation Yrotation Xrotation
		JOINT LeftLeg
		{
			OFFSET 0.000000 -0.000004 -38.200329
			CHANNELS 6 Xposition Yposition Zposition Zrotation Yrotation Xrotation
			JOINT LeftFoot
			{
				OFFSET 0.000000 -0.000004 -39.900856
				CHANNELS 6 Xposition Yposition Zposition Zrotation Yrotation Xrotation
				JOINT LeftToeBase
				{
					OFFSET 0.000000 -15.261639 0.000001
					CHANNELS 6 Xposition Yposition Zposition Zrotation Yrotation Xrotation
					JOINT LeftToeBaseEnd
					{
						OFFSET 0.000000 -7.539993 0.000001
						CHANNELS 6 Xposition Yposition Zposition Zrotation Yrotation Xrotation
						End Site
						{
							OFFSET 0.000000 0.000000 0.100000
						}
					}
				}
				JOINT LeftLegEnd
				{
					OFFSET 0.000000 0.000000 0.000000
					CHANNELS 6 Xposition Yposition Zposition Zrotation Yrotation Xrotation
					End Site
					{
						OFFSET 0.000000 0.000000 0.100000
					}
				}
			}
			JOINT LeftUpLegEnd
			{
				OFFSET 0.000000 0.000000 0.000000
				CHANNELS 6 Xposition Yposition Zposition Zrotation Yrotation Xrotation
				End Site
				{
					OFFSET 0.000000 0.000000 0.099998
				}
			}
		}
	}
}
MOTION
Frames: 2
Frame Time: 0.016667
-28.058220 63.122616 82.501457 43.209119 -0.711816 -4.865970 0.000007 2.080110 8.814254 -0.580611 -1.594173 13.944429 -0.000000 0.000002 8.844137 -0.797224 -0.812825 12.501471 -0.000007 -0.000001 11.682264 -3.815114 1.647561 7.037346 -0.000003 0.000001 11.746680 -1.569488 5.105054 2.768616 -0.000002 0.000002 17.658253 -40.833497 -30.768076 8.411241 0.000004 -0.000006 5.101542 -28.431342 3.943123 -20.448545 -0.000001 -0.000001 5.101537 2.984835 -4.356807 -14.012582 0.000008 0.000004 11.655060 -0.000001 0.000000 0.000000 -2.625390 0.000005 11.175217 8.424197 -82.431456 -0.490202 -0.000009 -0.000007 10.434710 -24.806849 -81.724238 28.966740 0.000003 -0.000031 29.628420 22.279859 -1.218048 97.440858 0.000010 0.000010 22.857620 -19.199858 57.735637 9.225437 -2.867336 -2.944275 3.959553 31.505535 -20.507773 46.755749 -0.000023 0.000010 3.350386 -19.905715 10.502779 -34.710984 -0.000006 -0.000008 3.756489 -13.142759 8.611701 -23.662794 -0.000003 -0.000009 3.147323 -0.000001 0.000001 0.000002 -0.086750 -2.345282 10.030894 -19.991429 -40.035208 11.828087 0.000011 0.000005 4.061079 -0.665852 -29.109290 4.488203 -0.000003 0.000006 3.248863 -1.165817 -29.109221 4.488144 0.000004 0.000006 2.639691 -0.000001 -0.000001 0.000003 0.104079 -0.006775 9.502951 -13.242622 -40.169268 7.647805 -0.000002 -0.000006 4.568727 0.073738 -28.870865 1.655818 0.000006 -0.000001 3.655002 -0.426263 -28.870872 1.655851 0.000004 0.000002 2.741224 -0.000002 -0.000002 0.000001 0.086762 2.267427 8.921700 -2.753020 -40.737799 0.299881 0.000023 -0.000004 4.061097 -0.502626 -28.867272 -1.932277 0.000015 -0.000005 3.655007 0.497389 -28.867265 -1.932280 0.000007 0.000005 2.741242 0.000002 0.000000 -0.000001 -0.173488 4.467185 7.976972 8.474723 -37.674798 -8.162109 0.000017 -0.000001 3.350403 -0.655356 -26.810830 -5.637526 0.000013 0.000004 2.842727 1.344641 -26.810931 -5.637543 0.000001 0.000009 2.639724 0.000000 -0.000000 0.000000 0.000004 -0.000008 0.000001 -0.000001 -0.000002 -0.000003 0.000002 0.000002 0.000015 0.000002 -0.000000 0.000001 2.625389 -0.000005 11.175218 -12.191977 80.524467 -0.588418 0.000001 0.000013 10.813627 78.052547 55.604662 52.319027 -0.000004 -0.000013 28.724758 -17.118172 -1.280177 107.377452 0.644396 0.328878 25.716171 23.120180 -26.601705 13.330962 2.867311 -2.944296 3.959539 -31.555443 17.972596 50.443816 -0.000009 0.000013 3.350419 14.241480 -9.016004 -25.486077 -0.000004 -0.000010 3.756537 9.455577 -6.949719 -17.426932 0.000005 -0.000004 3.100021 0.000000 -0.000001 -0.000000 0.086771 -2.345279 10.030883 -4.471864 27.193420 4.277472 0.000005 -0.000005 4.061106 0.061614 18.486534 -2.693230 0.000005 0.000007 3.248886 -0.438400 18.486962 -2.693263 -0.000002 -0.000000 2.639696 0.000001 0.000002 -0.000000 -0.104098 -0.006769 9.502938 0.834295 25.119819 3.571243 0.000002 -0.000007 4.568763 0.351523 17.658377 -0.955940 0.000002 0.000007 3.654994 -0.148510 17.658477 -0.955977 0.000002 0.000003 2.741231 0.000001 0.000004 -0.000003 -0.086742 2.267436 8.921707 9.029023 22.217017 3.324434 -0.000002 0.000003 4.061099 -0.860420 15.908904 0.998888 -0.000001 -0.000008 3.654999 0.139582 15.908890 0.998899 -0.000005 0.000005 2.741224 -0.000001 -0.000001 0.000002 0.173521 4.467191 7.976987 17.082231 18.422782 2.356002 0.000008 -0.000001 3.350411 -1.712134 12.885744 2.548692 0.000008 0.000004 2.842774 0.287848 12.885738 2.548655 -0.000003 -0.000000 2.639697 0.000000 0.000001 -0.000002 0.000004 0.000000 -0.000017 0.000003 -0.000003 -0.000001 -0.000000 0.000001 0.000013 -0.000000 0.000000 0.000003 -11.289942 0.000005 -0.000006 -10.292351 2.988461 -17.831933 0.000003 0.000005 -38.200333 -0.765800 0.839623 47.679959 0.000006 0.000006 -39.900860 -9.090859 1.546354 5.348173 0.000002 -15.261641 -0.000002 -0.712914 -0.573838 -31.282113 0.000001 -7.370711 0.000001 -0.000001 -0.000001 -0.000000 0.000004 0.000003 -0.000000 0.000001 0.000000 -0.000000 0.000004 0.000002 0.000006 0.000001 0.000000 0.000001 11.315666 -0.000002 0.000005 12.745202 -6.464647 -18.364019 -0.000007 0.000000 -38.200325 0.549346 -0.863861 57.544958 0.000007 -0.000004 -39.900867 -6.600970 12.872313 8.742506 -0.000007 -15.261654 0.000009 1.209178 -0.283644 -35.738265 -0.000002 -7.540006 -0.000000 -0.000004 -0.000000 -0.000000 -0.000007 -0.000006 0.000002 -0.000002 0.000001 0.000001 0.000002 0.000003 -0.000006 -0.000002 0.000001 -0.000001 
-27.649204 64.210571 82.455124 45.011165 -0.583901 -4.637875 0.000001 2.080110 8.814249 -0.675139 -1.920935 13.902763 0.000001 -0.000021 8.844131 -0.897882 -0.924221 12.702545 0.000009 0.000008 11.682257 -4.647188 1.547315 7.093234 0.000001 -0.000005 11.746695 -1.979778 4.982371 2.639587 -0.000004 0.000023 17.658268 -40.709679 -31.091861 8.499405 0.000006 0.000004 5.101519 -27.992023 3.878632 -20.487752 -0.000006 -0.000001 5.101515 2.989503 -4.356302 -14.079423 -0.000001 0.000007 11.655090 0.000001 -0.000001 -0.000000 -2.625382 0.000010 11.175217 8.325745 -82.908934 -0.511799 -0.000002 -0.000005 10.434711 -23.096553 -81.136070 27.342653 0.000005 -0.000005 29.628424 22.219294 -1.222670 97.560223 0.000000 0.000018 22.857616 -18.274962 57.832550 11.969840 -2.867331 -2.944286 3.959549 31.505545 -20.507773 46.755749 -0.000009 -0.000002 3.350400 -19.905724 10.502784 -34.710967 0.000001 -0.000015 3.756506 -13.142742 8.611701 -23.662815 -0.000001 -0.000008 3.147324 0.000002 0.000003 0.000003 -0.086742 -2.345285 10.030898 -20.379842 -40.813638 12.151508 0.000013 0.000008 4.061086 -0.718403 -29.685751 4.595273 0.000017 0.000008 3.248845 -1.218426 -29.685693 4.595293 0.000010 0.000005 2.639678 -0.000003 0.000001 0.000002 0.104082 -0.006776 9.502966 -13.533200 -40.931555 7.659785 0.000010 0.000002 4.568735 0.055466 -29.417174 1.693362 -0.000009 -0.000004 3.654973 -0.444566 -29.416901 1.693391 0.000004 0.000004 2.741225 0.000002 -0.000002 0.000000 0.086763 2.267431 8.921712 -2.902741 -41.391158 -0.023165 0.000008 -0.000006 4.061089 -0.483744 -29.351628 -1.971094 0.000014 -0.000002 3.654982 0.516279 -29.351645 -1.971103 0.000000 0.000002 2.741238 -0.000001 -0.000003 0.000001 -0.173503 4.467187 7.976983 8.426658 -38.120942 -8.605205 -0.000001 0.000007 3.350397 -0.614052 -27.180704 -5.728497 0.000002 0.000012 2.842779 1.385972 -27.180593 -5.728570 -0.000000 0.000000 2.639695 -0.000001 0.000002 0.000001 0.000001 0.000006 -0.000032 -0.000004 -0.000001 0.000001 0.000007 0.000001 0.000026 0.000000 -0.000003 0.000002 2.625392 0.000012 11.175202 -12.382913 80.401831 -0.580554 -0.000002 -0.000013 10.813643 77.688382 54.945856 52.777357 -0.000005 -0.000012 28.724789 -16.721777 1.468322 106.765091 0.644382 0.328894 25.716148 26.037909 -26.826914 13.418716 2.867315 -2.944309 3.959538 -31.604545 17.443465 51.240465 -0.000005 0.000011 3.350423 13.067142 -8.582394 -23.536881 0.000000 0.000003 3.756532 8.692327 -6.542692 -16.108566 0.000001 -0.000017 3.100008 0.000000 0.000001 -0.000000 0.086760 -2.345288 10.030890 -4.858372 24.433506 5.744543 -0.000005 0.000000 4.061112 0.157715 16.414545 -2.372832 0.000000 -0.000011 3.248862 -0.342274 16.414348 -2.372787 0.000001 0.000009 2.639726 -0.000001 -0.000001 -0.000002 -0.104095 -0.006777 9.502944 0.374670 22.618445 4.628004 0.000002 0.000012 4.568728 0.381556 15.836137 -0.851753 0.000004 0.000006 3.654993 -0.118480 15.836154 -0.851763 -0.000000 0.000009 2.741225 -0.000001 0.000001 0.000003 -0.086752 2.267439 8.921707 8.576620 20.268679 3.950032 0.000014 -0.000006 4.061110 -0.883664 14.563288 0.910452 0.000004 -0.000000 3.654970 0.116342 14.563230 0.910466 -0.000004 0.000005 2.741243 -0.000001 0.000001 -0.000001 0.173511 4.467188 7.976992 16.768347 17.155741 2.809063 0.000008 -0.000006 3.350421 -1.746959 12.097423 2.387712 0.000009 -0.000000 2.842770 0.253032 12.097163 2.387706 0.000008 0.000008 2.639712 0.000000 0.000001 -0.000001 0.000004 -0.000001 0.000015 -0.000001 0.000000 0.000000 -0.000000 0.000000 -0.000003 -0.000000 0.000000 0.000004 -11.289951 0.000001 -0.000003 -9.094021 3.423866 -17.099829 -0.000005 -0.000014 -38.200325 -0.757438 0.784708 46.010593 -0.000001 0.000014 -39.900848 -11.646165 -0.155712 4.802023 0.000003 -15.261638 0.000005 -0.620544 -0.490609 -30.350434 -0.000000 -7.370703 0.000000 -0.000001 -0.000001 -0.000000 0.000002 -0.000003 0.000003 0.000002 -0.000000 0.000001 -0.000002 0.000012 0.000002 0.000001 0.000002 0.000000 11.315653 0.000001 0.000011 10.289458 -7.552812 -19.119243 -0.000007 -0.000000 -38.200333 0.165219 -0.256835 57.247272 -0.000005 -0.000003 -39.900864 0.909690 12.776719 10.352137 -0.000003 -15.261650 0.000013 0.957504 -0.076565 -33.875802 -0.000013 -7.540000 0.000001 -0.000001 0.000000 -0.000001 -0.000005 0.000003 0.000001 -0.000005 0.000001 0.000001 -0.000007 0.000009 0.000005 -0.000000 -0.000001 -0.000002 
